<svg width="118" height="32" viewBox="0 0 118 32" fill="none" xmlns="http://www.w3.org/2000/svg">
<path d="M3.75549 31.8533H18.2394V25.7681H6.94066V13.3094L15.3459 7.51579L23.7478 13.3061V18.8145H29.833V11.8577C29.833 10.701 29.3373 9.59603 28.3846 8.96095L17.0859 1.42412C15.9259 0.652941 14.7659 0.665902 13.6059 1.42412C10.5147 3.459 3.98231 7.88842 2.59548 8.81513C1.20218 9.74508 0.855469 10.837 0.855469 11.861V28.9565C0.855469 30.3498 2.30386 31.8533 3.75225 31.8533H3.75549Z" fill="url(#paint0_linear_201_17865)"/>
<path d="M18.2435 31.8565V21.9834C18.2435 20.2337 19.6271 18.8145 21.3379 18.8145H29.8403L18.2402 31.8565H18.2435Z" fill="#FBBC33"/>
<path d="M36.4896 18.4196H38.0222C38.6119 17.7294 39.3669 16.1417 39.6099 11.1582L39.6391 8.46875H48.216V18.426H50.1602V22.6805H47.811V20.8206H38.8355V22.6805H36.4863V18.4196H36.4896ZM40.7797 18.4196H45.7243V10.6592L42.0887 10.7013L41.9915 12.9695C41.7258 16.4333 41.2949 17.8298 40.7797 18.4196ZM55.7917 11.21C58.8862 11.21 60.8789 13.2384 60.8789 15.957C60.8789 18.6691 58.8862 20.7039 55.7917 20.7039C52.6973 20.7039 50.7045 18.6755 50.7045 15.957C50.7045 13.2384 52.6973 11.21 55.7917 11.21ZM55.7917 18.5492C57.2628 18.5492 58.3483 17.522 58.3483 15.957C58.3483 14.4276 57.2466 13.3842 55.7917 13.3842C54.379 13.3842 53.2579 14.3887 53.2579 15.957C53.2579 17.4637 54.3369 18.5492 55.7917 18.5492ZM62.1718 11.4303H64.3363L67.5117 14.7095L70.5252 11.4303H72.6248V20.4771H70.2335V14.9493L67.4696 17.8234H67.4048L64.5599 14.9493V20.4771H62.1718V11.4303ZM108.005 11.4303H110.393V20.4771H108.005V11.4303ZM112.749 15.7302L117.285 20.4771H114.168L109.45 15.9181L113.919 11.4303H116.932L112.749 15.7302ZM74.987 11.4303H77.3751V20.4771H74.987V11.4303ZM79.7275 15.7302L84.2638 20.4771H81.1467L76.4289 15.9181L80.9005 11.4303H83.9139L79.7275 15.7302ZM91.8428 13.7439H89.4385L89.4029 14.7224C89.2862 19.8744 87.6758 20.7849 85.0933 20.5354V18.2997C86.4802 18.3904 87.044 17.7424 87.1088 14.2656L87.1541 11.4303H94.2373V20.4771H91.8493V13.7439H91.8428ZM96.5995 20.4771V11.4303H98.9875V17.1656L103.352 11.4303H105.74V20.4771H103.352V14.7451L98.9875 20.4804H96.5995V20.4771Z" fill="#004C60"/>
<defs>
<linearGradient id="paint0_linear_201_17865" x1="1.50028" y1="6.93903" x2="22.4647" y2="26.1505" gradientUnits="userSpaceOnUse">
<stop stop-color="#6BBD3F"/>
<stop offset="0.43" stop-color="#2CA465"/>
<stop offset="0.83" stop-color="#148F82"/>
<stop offset="1" stop-color="#0276A2"/>
</linearGradient>
</defs>
</svg>
