<svg width="56" height="48" viewBox="0 0 56 48" fill="none" xmlns="http://www.w3.org/2000/svg">
<path d="M51.2336 1.28535C43.8512 4.34295 12.1964 17.4548 3.4502 21.0284C-2.4154 23.3174 1.0184 25.4636 1.0184 25.4636C1.0184 25.4636 6.0254 27.1802 10.3178 28.4678C14.6096 29.7554 16.8986 28.325 16.8986 28.325L37.0706 14.7338C44.2238 9.86955 42.5072 13.8752 40.79 15.5924C37.0706 19.3124 30.9188 25.1774 25.7684 29.8988C23.4794 31.9016 24.6236 33.6182 25.6256 34.4768C29.345 37.6244 39.503 44.0624 40.0748 44.4914C43.097 46.631 49.0418 49.7108 49.946 43.2038L53.5226 20.7428C54.6674 13.1606 55.8116 6.15015 55.9544 4.14735C56.384 -0.717446 51.2336 1.28535 51.2336 1.28535Z" fill="#1B92D1"/>
</svg>
