<svg width="60" height="34" viewBox="0 0 60 34" fill="none" xmlns="http://www.w3.org/2000/svg">
<path d="M51.6385 21.6124C53.6288 23.5556 55.7294 25.3837 57.5145 27.5229C58.3031 28.4735 59.0496 29.4543 59.6208 30.5575C60.4301 32.1257 59.6971 33.8514 58.2909 33.9451L49.5499 33.9411C47.2954 34.1281 45.497 33.2206 43.9848 31.6791C42.7746 30.4464 41.6538 29.1345 40.4901 27.8602C40.0131 27.3395 39.5137 26.8494 38.9172 26.462C37.724 25.6875 36.6882 25.9245 36.0063 27.1691C35.3119 28.4349 35.1542 29.8365 35.086 31.2472C34.9924 33.3055 34.3703 33.8466 32.3027 33.9409C27.8842 34.1492 23.6907 33.4808 19.7951 31.2518C16.3605 29.2868 13.6973 26.5126 11.3791 23.3721C6.86588 17.2569 3.40943 10.5371 0.303025 3.62914C-0.396233 2.07277 0.115173 1.23734 1.83244 1.2077C4.68396 1.15227 7.53513 1.15625 10.3901 1.20371C11.549 1.2207 12.3163 1.88539 12.7638 2.98027C14.3066 6.77375 16.1944 10.3829 18.5639 13.7282C19.1949 14.6189 19.8384 15.5096 20.7546 16.1364C21.7683 16.8305 22.5401 16.6005 23.0169 15.4713C23.3195 14.7553 23.452 13.9841 23.5202 13.2173C23.7462 10.5791 23.7759 7.94527 23.3797 5.31629C23.1364 3.67555 22.2123 2.61336 20.5751 2.30293C19.7396 2.14461 19.864 1.83371 20.2685 1.35688C20.971 0.534453 21.6319 0.0224609 22.9492 0.0224609H32.8278C34.383 0.329375 34.7284 1.02805 34.9413 2.59285L34.9497 13.5659C34.9328 14.1717 35.2523 15.9695 36.3435 16.3703C37.2167 16.6558 37.7924 15.9571 38.3164 15.4034C40.6816 12.8932 42.3697 9.92645 43.8778 6.85449C44.5471 5.50367 45.1226 4.10094 45.6803 2.69926C46.0935 1.65922 46.7419 1.14746 47.9134 1.17008L57.421 1.17852C57.703 1.17852 57.9882 1.18262 58.2613 1.22938C59.8633 1.50242 60.3024 2.1916 59.8076 3.75605C59.0279 6.21055 57.5109 8.25605 56.0277 10.3109C54.4421 12.5048 52.7463 14.6237 51.174 16.8305C49.7293 18.8462 49.844 19.862 51.6385 21.6124Z" fill="#436EAB"/>
</svg>
