<svg width="60" height="60" viewBox="0 0 60 60" fill="none" xmlns="http://www.w3.org/2000/svg">
<path d="M28.5449 0.0346987C12.6989 0.789192 0.194255 13.9858 0.242326 29.8497C0.256962 34.6814 1.42343 39.2419 3.48114 43.2715L0.321821 58.6072C0.15092 59.4368 0.899099 60.1631 1.72319 59.968L16.7503 56.4077C20.6111 58.3308 24.9475 59.4416 29.5368 59.5117C45.7329 59.759 59.2376 46.8989 59.7424 30.7089C60.2835 13.3543 45.9602 -0.794699 28.5449 0.0346987ZM46.4755 46.2334C42.0746 50.6342 36.2234 53.0579 29.9997 53.0579C26.3556 53.0579 22.8666 52.2402 19.6296 50.6278L17.5368 49.5853L8.32364 51.7681L10.263 42.3539L9.23196 40.3349C7.5515 37.0439 6.69943 33.4851 6.69943 29.7575C6.69943 23.5338 9.12304 17.6826 13.5239 13.2817C17.8854 8.92015 23.8321 6.45707 30.0002 6.45707C36.2238 6.45722 42.0748 8.88084 46.4756 13.2815C50.8764 17.6823 53.3001 23.5335 53.3002 29.7571C53.3001 35.9254 50.837 41.872 46.4755 46.2334Z" fill="#7AD06D"/>
<path d="M44.4411 36.2113L38.6771 34.5562C37.9193 34.3387 37.1032 34.5536 36.551 35.1162L35.1415 36.5523C34.5471 37.1579 33.6453 37.3525 32.8586 37.0342C30.132 35.9307 24.3962 30.8309 22.9314 28.28C22.5088 27.5442 22.5787 26.6243 23.0976 25.9528L24.3282 24.3608C24.8103 23.737 24.9121 22.8993 24.5932 22.1782L22.1682 16.6934C21.5873 15.3798 19.9086 14.9973 18.8118 15.9249C17.2031 17.2855 15.2944 19.3531 15.0623 21.6437C14.6532 25.6822 16.3852 30.7731 22.9347 36.886C30.5012 43.948 36.5604 44.881 40.5055 43.9254C42.7431 43.3834 44.5313 41.2106 45.6599 39.4316C46.4293 38.2186 45.8218 36.6077 44.4411 36.2113Z" fill="#7AD06D"/>
</svg>
