<svg width="196" height="30" viewBox="0 0 196 30" fill="none" xmlns="http://www.w3.org/2000/svg">
<path d="M39.375 4.6875V22.3875H42.4716V14.6991H48.2597V22.3866H51.3562V4.6875H48.2597V12.3019H42.4716V4.6875H39.375ZM63.7744 21.5175V19.0519C62.8256 19.6856 61.2403 20.2444 59.7534 20.2444C57.525 20.2444 56.6822 19.2009 56.5509 17.0653H63.8991V15.4622C63.8991 11.0034 61.9266 9.32719 58.8862 9.32719C55.1709 9.32719 53.4037 12.1528 53.4037 16.0209C53.4037 20.4741 55.6078 22.6416 59.4975 22.6416C61.4456 22.6416 62.8753 22.1325 63.7744 21.5175ZM58.83 11.7187C60.3403 11.7187 60.8025 12.9666 60.8025 14.5687V14.8237H56.5509C56.6325 12.7866 57.3759 11.7187 58.8291 11.7187H58.83ZM77.2612 19.9912H75.9056V9.58125H67.0219V10.6744C67.0219 13.8047 66.8222 17.8537 65.7422 19.9903H64.8V25.3125H67.6153V22.3875H74.4459V25.3125H77.2612V19.9903V19.9912ZM72.8587 19.9912H68.5575C69.4059 18.06 69.6375 14.5697 69.6375 12.3525V11.9719H72.8587V19.9894V19.9912ZM84.1219 22.3875C87.1444 22.3875 88.9359 21.1144 88.9359 18.6675C88.9359 16.9903 87.9122 16.0219 86.1947 15.7172C87.5813 15.3328 88.4494 14.3634 88.4494 12.8353C88.4494 10.65 86.9878 9.58219 84.1725 9.58219H78.7969V22.3875H84.1219ZM83.8162 11.8172C84.915 11.8172 85.5337 12.3019 85.5337 13.2956C85.5337 14.19 84.8653 14.7234 83.7103 14.7234H81.7688V11.8172H83.8162ZM83.8659 16.9341C85.1709 16.9341 85.8647 17.3934 85.8647 18.4622C85.8647 19.6612 85.0959 20.145 83.8659 20.145H81.7688V16.9341H83.8659ZM90.9844 9.58125V22.3875H93.6937L98.3578 14.4694V22.3875H101.298V9.58125H98.5884L93.9244 17.4994V9.58125H90.9844ZM106.062 22.3875L110.107 16.0969V22.3875H113.149V16.0969L117.194 22.3875H120.653L116.17 15.4631L120.06 9.58125H116.988L113.149 15.4875V9.58125H110.107V15.4875L106.268 9.58125H103.115L107.086 15.5869L102.71 22.3875H106.062ZM122.058 9.58125V22.3875H124.774L129.431 14.4694V22.3875H132.379V9.58125H129.663L125.004 17.4994V9.58125H122.058ZM145.914 22.3875H148.886L148.837 9.58125H144.666L141.875 18.1087L139.365 9.58125H134.938V22.3875H137.523V12.8109L140.314 22.3875H142.792L145.914 12.8109V22.3875ZM156.616 9.32719C153.263 9.32719 150.934 11.6925 150.934 15.9966C150.934 20.2762 153.263 22.6416 156.616 22.6416C159.968 22.6416 162.297 20.2762 162.297 15.9722C162.297 11.6925 159.968 9.32719 156.616 9.32719ZM156.616 20.2444C154.93 20.2444 154.081 18.9469 154.081 15.9975C154.081 13.0162 154.93 11.7178 156.616 11.7178C158.308 11.7178 159.151 13.0153 159.151 15.9722C159.151 18.9469 158.308 20.2444 156.616 20.2444ZM169.877 22.6416C171.288 22.6416 172.281 22.3875 173.024 21.8541V19.3819C172.256 19.9162 171.338 20.2444 170.058 20.2444C167.879 20.2444 166.987 18.5681 166.987 15.9159C166.987 13.14 168.085 11.7178 170.083 11.7178C171.257 11.7178 172.412 12.1275 173.024 12.5062V9.93562C172.387 9.58125 171.257 9.32625 169.752 9.32625C165.856 9.32625 163.839 12.0966 163.839 15.9966C163.839 20.2762 165.806 22.6416 169.877 22.6416ZM184.393 11.9728V9.58125H174.179V11.9719H177.762V22.3875H180.809V11.9719H184.393V11.9728ZM186.185 9.58219V22.3875H190.768C193.79 22.3875 195.938 20.8594 195.938 17.8537C195.938 15.0037 194.015 13.5 190.818 13.5H189.232V9.58125H186.185V9.58219ZM190.587 19.9903H189.232V15.8906H190.661C191.998 15.8906 192.79 16.4803 192.79 17.9522C192.79 19.4306 191.917 19.9894 190.587 19.9894V19.9903Z" fill="black" fill-opacity="0.92"/>
<path d="M22.6093 5.65332H7.26709V24.2252H22.6093V5.65332Z" fill="white"/>
<path d="M15.0159 0C6.72469 0 0 6.7275 0 14.9972C0 23.2913 6.72469 30 15.0159 30C23.2753 30 30 23.2913 30 14.9972C30 6.72844 23.2753 0 15.0159 0ZM16.9566 23.9109V8.47594H15.5775C13.0444 8.47594 11.715 9.76031 11.715 11.6578C11.715 13.8188 12.6328 14.8153 14.5294 16.0997L16.0884 17.1581L11.5847 23.9109H8.235L12.2766 17.8725C9.94969 16.2056 8.64656 14.5837 8.64656 11.8397C8.64656 8.39437 11.0231 6.05719 15.5522 6.05719H20.0503V23.9109H16.9566Z" fill="#FC3F1D"/>
</svg>
