<svg width="52" height="52" viewBox="0 0 52 52" fill="none" xmlns="http://www.w3.org/2000/svg">
<path d="M23.8349 4.75C24.7972 3.08333 27.2028 3.08333 28.1651 4.75L45.4856 34.75C46.4478 36.4167 45.245 38.5 43.3205 38.5H8.67949C6.75499 38.5 5.55218 36.4167 6.51443 34.75L23.8349 4.75Z" stroke="#F86247"/>
<path d="M32.2312 14.5185L26.8487 12.9287L23.3284 17.7565L20.7865 21.1484L22.3869 23.2381L18.8984 33.8503L24.2809 35.44L32.3566 23.6879L28.5605 22.5667L29.8724 19.6893L31.643 20.2122L32.2312 14.5185Z" fill="#3A3A3B"/>
<path d="M26.8502 12.9286L20.5819 16.9448L22.3242 17.4593L16.8981 22.5866L21.7991 24.0341L18.8998 33.8502L26.9756 22.098L23.1795 20.9768L24.4913 18.0994L26.2619 18.6224L26.8502 12.9286Z" fill="#9FF612"/>
</svg>
