<svg width="40" height="33" viewBox="0 0 40 33" fill="none" xmlns="http://www.w3.org/2000/svg">
<path fill-rule="evenodd" clip-rule="evenodd" d="M2.73875 14.2326C13.474 9.59023 20.6205 6.50547 24.2092 5.00891C34.423 0.763554 36.57 0.0305421 37.9502 0C38.257 0 38.9317 0.0610847 39.3918 0.42759C39.7599 0.733011 39.8519 1.13006 39.9132 1.43548C39.9746 1.7409 40.0359 2.38229 39.9746 2.87096C39.4225 8.67396 37.0301 22.7539 35.8032 29.2288C35.2818 31.9776 34.2696 32.8939 33.2881 32.9855C31.141 33.1687 29.5154 31.5806 27.4604 30.2367C24.2092 28.1293 22.3995 26.816 19.2403 24.7391C15.5903 22.3568 17.9521 21.0435 20.0378 18.9056C20.5899 18.3558 30.0062 9.80402 30.1902 9.04047C30.2209 8.94884 30.2209 8.58234 30.0062 8.39908C29.7915 8.21583 29.4848 8.27692 29.2394 8.338C28.902 8.39908 23.7491 11.8198 13.7193 18.5696C12.2471 19.5775 10.9282 20.0662 9.73197 20.0356C8.41307 20.0051 5.89797 19.3026 3.9963 18.6918C1.6959 17.9588 -0.144423 17.5617 0.00893695 16.279C0.100953 15.607 1.02111 14.9351 2.73875 14.2326Z" fill="white"/>
</svg>
