<svg width="129" height="24" viewBox="0 0 129 24" fill="none" xmlns="http://www.w3.org/2000/svg">
<path fill-rule="evenodd" clip-rule="evenodd" d="M117.139 20.1572C115.513 20.1572 114.048 19.7063 112.75 18.8044C111.452 17.8963 110.439 16.6794 109.716 15.1348C108.992 13.5968 108.628 11.9164 108.628 10.0817C108.628 8.25939 108.999 6.57283 109.728 5.02847C110.457 3.48411 111.465 2.26093 112.756 1.35903C114.048 0.451 115.501 0 117.108 0C118.387 0 119.506 0.203826 120.464 0.605563C121.422 1.00698 122.182 1.60008 122.739 2.37204V0.630196H129V19.5085H122.72V17.8097C122.164 18.5695 121.41 19.1502 120.458 19.5518C119.5 19.9595 118.4 20.1572 117.139 20.1572ZM91.2044 11.5579L91.8205 5.60253L93.2786 5.86747L92.4059 0.629985H69.2098V11.9596C69.2098 12.6392 69.0864 13.1395 68.8393 13.4607C68.592 13.7882 68.2395 13.9548 67.7821 13.9548H66.818V19.5085H68.1965C69.4879 19.5085 70.712 19.2612 71.8739 18.7733C73.0298 18.2854 73.9817 17.5008 74.7172 16.4195C75.4527 15.3451 75.8172 13.9736 75.8172 12.3054V6.15259H81.1826V19.5085H82.7996L84.6139 7.173L88.4563 7.94476L89.8576 5.19339L88.3979 4.91715L92.4059 0.629985H94.4537V6.52959H95.3438L98.8918 0.629985H106.661L100.628 9.34037L107.242 19.5085H99.3612L95.7765 13.1023H94.4537V19.5085C90.569 19.5085 86.6843 19.5085 82.7996 19.5085L87.4083 10.8045L91.2044 11.5579ZM22.8888 14.0414C23.5998 13.1149 24.1869 11.9411 24.6381 10.5326C25.0893 9.11815 25.3982 7.39449 25.5714 5.35578L25.9484 0.630196H41.7592V14.0414H43.4775V23.2706H36.9072V19.5085H28.0315V23.2706H21.4796V14.0414H22.8888ZM35.1826 6.11591H31.8327L31.6905 7.61703C31.5544 9.01919 31.3073 10.2177 30.9488 11.2185C30.5841 12.2192 30.1145 13.1643 29.5334 14.0414H35.1826V6.11591ZM9.98216 20.1448C8.0351 20.1448 6.31082 19.6876 4.79015 18.7857C3.27594 17.8776 2.10149 16.6606 1.26088 15.1226C0.420469 13.5843 0 11.9041 0 10.0817C0 8.25939 0.420469 6.57907 1.26088 5.04095C2.10149 3.50261 3.27594 2.2734 4.79015 1.36527C6.31082 0.457236 8.0351 0 9.98216 0C11.7562 0 13.3384 0.352046 14.7354 1.06872C16.1259 1.77906 17.2695 2.74904 18.1657 3.97825C19.0558 5.2138 19.6553 6.60381 19.9582 8.16054H13.2581C12.7387 6.79527 11.6573 6.11591 10.0192 6.11591C9.40112 6.11591 8.82632 6.26392 8.2949 6.56681C7.76326 6.86938 7.34279 7.31414 7.02778 7.90712C6.71256 8.50032 6.55792 9.21679 6.55792 10.0632C6.55792 10.9156 6.71881 11.6447 7.04005 12.244C7.35527 12.837 7.78176 13.2941 8.30716 13.5968C8.83256 13.9056 9.40112 14.0599 10.0192 14.0599C10.8042 14.0599 11.4716 13.8746 12.0343 13.5101C12.5966 13.1395 13.0046 12.5093 13.2581 11.62H19.9582C19.6801 13.2569 19.0991 14.7271 18.2089 16.0182C17.3251 17.3093 16.1754 18.3163 14.76 19.0452C13.3509 19.7742 11.7562 20.1448 9.98216 20.1448ZM65.1359 10.0817C65.1359 10.576 65.0928 11.1071 65.0061 11.6694H51.8285C52.1868 13.5905 53.3058 14.548 55.1785 14.548C56.5631 14.548 57.4406 14.0786 57.7992 13.1395H64.8084C64.5549 14.3071 64.011 15.4252 63.1704 16.4938C62.3297 17.5628 61.2357 18.4399 59.8822 19.1193C58.5347 19.799 57.008 20.1448 55.3022 20.1448C53.3365 20.1448 51.5812 19.6876 50.0421 18.7857C48.5032 17.8776 47.3102 16.6606 46.4574 15.1226C45.6043 13.5843 45.1778 11.9041 45.1778 10.0817C45.1778 8.24691 45.6043 6.56057 46.4574 5.02223C47.3102 3.48411 48.5032 2.26093 50.0361 1.35903C51.5688 0.451 53.3242 0 55.3022 0C57.28 0 59.0168 0.451003 60.5065 1.34656C62.0022 2.24867 63.1456 3.45948 63.9431 4.99147C64.7402 6.52335 65.1359 8.22228 65.1359 10.0817ZM58.3617 7.56131C58.2813 6.86314 57.9537 6.30113 57.3852 5.86863C56.8163 5.44247 56.1488 5.22628 55.3763 5.22628C54.6284 5.22628 53.9608 5.41149 53.386 5.76978C52.8052 6.1343 52.3662 6.73363 52.0635 7.56131H58.3617ZM118.808 14.0786C119.494 14.0786 120.118 13.9056 120.674 13.5535C121.231 13.2013 121.663 12.7196 121.978 12.1078C122.287 11.4901 122.448 10.8107 122.448 10.0632C122.448 9.34038 122.287 8.67317 121.966 8.06169C121.645 7.4502 121.212 6.96833 120.656 6.61628C120.099 6.25789 119.488 6.0787 118.826 6.0787C118.152 6.0787 117.534 6.23326 116.991 6.54207C116.44 6.85098 116.001 7.30188 115.674 7.9011C115.346 8.49408 115.186 9.21679 115.186 10.0632C115.186 10.9528 115.352 11.7002 115.686 12.3056C116.014 12.9111 116.459 13.3558 117.003 13.6461C117.553 13.9366 118.159 14.0786 118.808 14.0786Z" fill="#FEFEFE"/>
</svg>
